<?xml version="1.0" standalone="no"?>
<!DOCTYPE svg PUBLIC "-//W3C//DTD SVG 20010904//EN"
 "http://www.w3.org/TR/2001/REC-SVG-20010904/DTD/svg10.dtd">
<svg version="1.0" xmlns="http://www.w3.org/2000/svg"
 width="142.000000pt" height="142.000000pt" viewBox="0 0 142.000000 142.000000"
 preserveAspectRatio="xMidYMid meet">
<metadata>
Created by potrace 1.14, written by Peter Selinger 2001-2017
</metadata>
<g transform="translate(0.000000,142.000000) scale(0.100000,-0.100000)"
fill="#000000" stroke="none">
<path d="M1083 1300 c-48 -19 -58 -95 -18 -135 52 -53 137 -15 137 60 0 65
-56 100 -119 75z"/>
<path d="M785 1030 c-269 -37 -514 -71 -544 -75 -41 -5 -62 -14 -83 -35 l-28
-28 0 -309 0 -309 -55 -54 c-30 -30 -55 -58 -55 -62 0 -4 27 -8 60 -8 42 0 69
-6 92 -20 32 -19 51 -20 610 -20 l576 0 31 26 31 26 0 444 0 445 -26 24 c-21
20 -37 25 -73 24 -25 -1 -266 -32 -536 -69z m415 -415 l0 -355 -73 0 -74 0 -6
232 c-4 128 -7 270 -7 315 l0 82 73 39 c39 22 75 40 80 41 4 0 7 -159 7 -354z
m-290 -45 l0 -310 -70 0 c-63 0 -70 2 -70 20 0 11 -1 20 -2 20 -2 0 -25 -11
-52 -25 -94 -48 -227 -25 -298 51 -78 84 -98 237 -45 347 64 131 220 184 346
119 51 -27 49 -27 53 1 2 15 21 32 63 54 33 18 63 33 68 33 4 0 7 -139 7 -310z"/>
<path d="M559 657 c-45 -30 -59 -60 -59 -127 0 -72 11 -90 34 -56 12 20 25 26
51 26 51 0 74 -53 38 -92 -15 -17 -14 -18 24 -18 72 0 123 61 123 147 0 116
-117 183 -211 120z"/>
</g>
</svg>
