<svg width="100%" height="60" viewBox="0 0 321 60" fill="none" xmlns="http://www.w3.org/2000/svg"><path fill-rule="evenodd" clip-rule="evenodd" d="M287.704 38.7847C287.704 40.9864 287.056 42.7847 285.765 44.171C284.473 45.5572 282.782 46.2525 280.692 46.2525C280.022 46.2525 279.391 46.1753 278.799 46.0251C280.074 45.7203 281.018 44.5701 281.018 43.1967C281.018 41.5873 279.713 40.2783 278.099 40.2783C276.49 40.2783 275.181 41.5873 275.181 43.1967C275.181 43.3426 275.194 43.4886 275.219 43.6302C274.996 43.3384 274.799 43.025 274.623 42.6903C274.035 41.5701 273.739 40.2654 273.739 38.7847C273.739 37.3426 274.035 36.0594 274.623 34.9392C275.211 33.819 276.031 32.9435 277.074 32.3169C278.121 31.6903 279.322 31.377 280.692 31.377C282.099 31.377 283.322 31.6903 284.37 32.3169C285.413 32.9435 286.228 33.819 286.82 34.9392C287.408 36.0594 287.704 37.3426 287.704 38.7847Z" fill="url(#paint0_linear_589_5983)"></path><path fill-rule="evenodd" clip-rule="evenodd" d="M320.404 52.7593C320.391 52.725 320.382 52.6907 320.374 52.652V15.2271C320.374 14.6176 320.262 14.0339 320.061 13.4975C319.4 11.7678 317.786 10.4975 315.867 10.3472C315.743 10.3387 315.614 10.3301 315.481 10.3301L260.314 17.8365C260.206 17.8365 260.103 17.8365 260.005 17.8537C258.082 18.0039 256.473 19.2743 255.812 21.0039C255.61 21.5404 255.498 22.1284 255.498 22.7335V51.6091L249.588 57.7593L256.374 58.004C256.636 58.3731 256.962 58.6949 257.322 58.9739C258.129 59.6091 259.138 59.9868 260.232 59.9997H315.64C316.734 59.9868 317.743 59.6091 318.55 58.9739C319.709 58.0812 320.455 56.6778 320.455 55.107V53.2486C320.455 53.0769 320.438 52.9095 320.404 52.7593ZM294.713 52.579H287.305V49.9095C286.554 50.7121 285.657 51.3816 284.627 51.9224C283.065 52.7379 281.301 53.1456 279.322 53.1456C276.816 53.1456 274.554 52.519 272.545 51.2657C270.528 50.0125 268.949 48.3044 267.812 46.137C266.67 43.9739 266.099 41.5404 266.099 38.8408C266.099 36.1069 266.67 33.6563 267.812 31.4889C268.949 29.3258 270.528 27.6134 272.545 26.3601C274.554 25.1069 276.816 24.4803 279.322 24.4803C281.301 24.4803 283.065 24.8794 284.627 25.6777C285.657 26.2056 286.554 26.8752 287.305 27.6777V25.0468L294.713 21.1455V52.579ZM308.85 52.579H301.327L301.232 20.9266L308.85 16.9824V52.579Z" fill="url(#paint1_linear_589_5983)"></path><path d="M33.3434 18.1074V25.0044H20.5751V58.1719H12.7683V25.0044H0V18.1074H33.3434Z" fill="url(#paint2_linear_589_5983)"></path><path d="M50.5576 30.6483V33.275C49.8065 32.4681 48.9095 31.8029 47.8752 31.275C46.3173 30.4724 44.5533 30.0732 42.5791 30.0732C40.0683 30.0732 37.8065 30.7041 35.7936 31.9574C33.7808 33.2106 32.2014 34.9187 31.064 37.0861C29.9224 39.2535 29.3516 41.7042 29.3516 44.4381C29.3516 47.1376 29.9224 49.5668 31.064 51.7342C32.2014 53.9016 33.7808 55.6098 35.7936 56.863C37.8065 58.1162 40.0683 58.7428 42.5791 58.7428C44.5533 58.7428 46.3173 58.3351 47.8752 57.5196C48.9095 56.9788 49.8022 56.3093 50.5576 55.5067V58.172H57.9653V30.6483H50.5576ZM49.0168 49.7685C47.725 51.1548 46.034 51.8501 43.9439 51.8501C42.579 51.8501 41.3687 51.5325 40.3258 50.9059C39.2786 50.2793 38.4632 49.408 37.8752 48.2836C37.2829 47.1677 36.9911 45.863 36.9911 44.3823C36.9911 42.9359 37.2829 41.6569 37.8752 40.5325C38.4632 39.4123 39.2786 38.5411 40.3258 37.9102C41.3687 37.2878 42.579 36.9745 43.9439 36.9745C45.3516 36.9745 46.5748 37.2878 47.622 37.9102C48.6649 38.5411 49.4803 39.4123 50.0726 40.5325C50.6606 41.6569 50.9567 42.9359 50.9567 44.3823C50.9567 46.584 50.3087 48.3823 49.0168 49.7685Z" fill="url(#paint3_linear_589_5983)"></path><path d="M104.76 30.6484L94.4979 58.1721H89.0859L83.1889 42.0218L77.2876 58.1721H71.9271L61.6138 30.6484H69.1374L74.7468 47.3266L80.4764 30.6484H85.8928L91.6267 47.3309L97.2361 30.6484H104.76Z" fill="url(#paint4_linear_589_5983)"></path><path d="M134.111 30.6484L134.236 30.9789L134.51 30.6484H134.111Z" fill="url(#paint5_linear_589_5983)"></path><path d="M135.078 58.1719H125.962L115.872 44.7384V58.1719H108.408V16.9658H115.872V43.2706L125.906 30.6482H134.112L134.237 30.9787L123.7 43.7341L135.078 58.1719Z" fill="url(#paint6_linear_589_5983)"></path><path d="M169.734 30.6484L164.124 47.3309L158.39 30.6484H152.974L147.244 47.3266L141.635 30.6484H134.111L134.236 30.9789L144.429 58.1721H149.785L155.686 42.0218L161.583 58.1721H166.996L177.257 30.6484H169.734Z" fill="white" class="group-[.is-sticky]:fill-black-400"></path><path d="M184.211 26.2017C182.996 26.2017 181.987 25.794 181.189 24.9742C180.391 24.1588 179.992 23.1416 179.992 21.927C179.992 20.7511 180.391 19.7425 181.189 18.9056C181.987 18.0729 182.996 17.6523 184.211 17.6523C185.464 17.6523 186.481 18.0729 187.258 18.9056C188.039 19.7425 188.425 20.7511 188.425 21.927C188.425 23.1416 188.039 24.1588 187.258 24.9742C186.481 25.794 185.464 26.2017 184.211 26.2017ZM180.451 58.176V30.6481H187.975V58.176H180.451Z" fill="white" class="group-[.is-sticky]:fill-black-400"></path><path d="M212.537 30.6477V37.1971H206.095V58.1714H198.627V37.1971H192.189V30.6477H198.627V19.1885H206.095V30.6477H212.537Z" fill="white" class="group-[.is-sticky]:fill-black-400"></path><path d="M242.743 40.7341V58.1719H235.275V42.3864C235.275 40.7512 234.764 39.4208 233.739 38.395C232.713 37.3693 231.382 36.8585 229.747 36.8585C228.683 36.8585 227.734 37.086 226.897 37.541C226.06 38.0002 225.408 38.644 224.932 39.4809C224.455 40.3178 224.219 41.2877 224.219 42.3864V58.1719H216.751V16.9658H224.219V33.1761C224.867 32.5023 225.618 31.9229 226.468 31.4422C228.086 30.5324 229.936 30.0731 232.026 30.0731C234.116 30.0731 235.97 30.5324 237.584 31.4422C239.198 32.3564 240.464 33.6096 241.374 35.2062C242.288 36.8028 242.743 38.644 242.743 40.7341Z" fill="white" class="group-[.is-sticky]:fill-black-400"></path><path d="M305.086 8.54936C303.871 8.54936 302.863 8.14164 302.065 7.3219C301.266 6.50645 300.867 5.48927 300.867 4.27468C300.867 3.09871 301.266 2.09012 302.065 1.25321C302.863 0.420594 303.871 0 305.086 0C306.339 0 307.356 0.420594 308.133 1.25321C308.914 2.09012 309.301 3.09871 309.301 4.27468C309.301 5.48927 308.91 6.50645 308.133 7.3219C307.356 8.13735 306.339 8.54936 305.086 8.54936Z" fill="url(#paint7_linear_589_5983)"></path><defs><linearGradient id="paint0_linear_589_5983" x1="273.739" y1="38.8164" x2="287.704" y2="38.8164" gradientUnits="userSpaceOnUse"><stop stop-color="#2056BE"></stop><stop offset="1" stop-color="#467FED"></stop></linearGradient><linearGradient id="paint1_linear_589_5983" x1="246.971" y1="7.29702" x2="321.649" y2="62.2324" gradientUnits="userSpaceOnUse"><stop stop-color="#2056BE"></stop><stop offset="1" stop-color="#467FED"></stop></linearGradient><linearGradient id="paint2_linear_589_5983" x1="-5.88142" y1="29.2034" x2="134.462" y2="72.5511" gradientUnits="userSpaceOnUse"><stop stop-color="#2056BE"></stop><stop offset="1" stop-color="#467FED"></stop></linearGradient><linearGradient id="paint3_linear_589_5983" x1="-5.45034" y1="27.8066" x2="134.893" y2="71.1543" gradientUnits="userSpaceOnUse"><stop stop-color="#2056BE"></stop><stop offset="1" stop-color="#467FED"></stop></linearGradient><linearGradient id="paint4_linear_589_5983" x1="-1.96349" y1="16.5188" x2="138.38" y2="59.8665" gradientUnits="userSpaceOnUse"><stop stop-color="#2056BE"></stop><stop offset="1" stop-color="#467FED"></stop></linearGradient><linearGradient id="paint5_linear_589_5983" x1="132.87" y1="30.5729" x2="135.77" y2="31.0403" gradientUnits="userSpaceOnUse"><stop stop-color="#2056BE"></stop><stop offset="1" stop-color="#467FED"></stop></linearGradient><linearGradient id="paint6_linear_589_5983" x1="2.03834" y1="3.56336" x2="142.382" y2="46.911" gradientUnits="userSpaceOnUse"><stop stop-color="#2056BE"></stop><stop offset="1" stop-color="#467FED"></stop></linearGradient><linearGradient id="paint7_linear_589_5983" x1="268.822" y1="-22.4083" x2="343.5" y2="32.5275" gradientUnits="userSpaceOnUse"><stop stop-color="#2056BE"></stop><stop offset="1" stop-color="#467FED"></stop></linearGradient></defs></svg>